<?xml version="1.0" encoding="UTF-8" standalone="no"?>
<!DOCTYPE svg PUBLIC "-//W3C//DTD SVG 1.1//EN" "http://www.w3.org/Graphics/SVG/1.1/DTD/svg11.dtd">
<svg xmlns="http://www.w3.org/2000/svg" version="1.1" viewBox="0.00 0.00 1024.00 1024.00" width="1024.00" height="1024.00">
<g stroke-width="2.00" fill="none" stroke-linecap="butt">
<path stroke="#f5a081" vector-effect="non-scaling-stroke" d="
  M 741.59 463.63
  C 732.42 364.40 650.32 292.42 555.62 276.38
  Q 526.95 271.53 498.26 273.07
  Q 428.91 276.79 373.11 315.04
  C 348.17 332.14 328.01 353.39 312.27 378.77
  Q 275.52 438.00 283.92 508.24
  C 288.57 547.17 306.10 582.81 332.30 611.69
  Q 373.90 657.55 432.16 678.33
  Q 471.45 692.35 511.50 692.59
  Q 545.96 692.81 584.50 681.43
  C 592.44 679.09 600.78 675.58 608.38 673.44
  Q 620.87 669.92 632.79 672.42
  Q 641.77 674.31 652.14 678.86
  Q 676.55 689.58 685.76 692.99
  C 693.24 695.77 715.03 703.99 715.12 690.41
  C 715.16 683.91 711.85 675.63 709.26 669.48
  Q 698.83 644.69 696.13 616.90
  Q 695.69 612.44 696.22 609.20
  A 4.99 4.92 70.1 0 1 697.33 606.78
  C 731.42 566.72 746.46 516.36 741.59 463.63"
/>
<path stroke="#f5a081" vector-effect="non-scaling-stroke" d="
  M 412.47 574.98
  C 445.76 595.91 485.43 605.82 524.23 603.66
  C 550.57 602.20 580.96 593.78 598.83 573.31
  Q 618.90 550.32 613.05 520.09
  C 608.85 498.40 592.67 483.47 573.77 474.21
  Q 558.66 466.80 541.97 463.09
  Q 526.00 459.53 513.01 456.47
  Q 505.35 454.66 498.72 452.29
  C 491.55 449.74 484.37 446.05 481.89 438.64
  C 478.79 429.34 484.43 421.47 492.74 417.26
  Q 498.18 414.50 502.23 413.89
  Q 523.69 410.64 544.77 417.17
  Q 564.86 423.39 582.76 433.84
  A 0.33 0.32 -62.7 0 0 583.22 433.69
  L 603.12 389.88
  A 1.07 1.07 0.0 0 0 602.67 388.51
  Q 572.56 371.52 541.73 367.27
  Q 528.14 365.40 520.02 365.17
  Q 498.79 364.56 477.27 370.04
  C 449.44 377.14 420.58 395.27 415.87 426.33
  Q 413.58 441.41 417.35 455.47
  C 422.63 475.14 438.94 490.27 457.72 498.53
  Q 472.95 505.22 488.74 509.03
  Q 490.21 509.38 518.76 515.50
  C 529.68 517.84 549.36 522.83 549.36 536.81
  Q 549.36 542.21 546.24 546.17
  C 540.15 553.90 531.00 556.70 521.19 557.42
  C 508.07 558.39 496.20 556.17 483.02 552.42
  Q 460.16 545.93 441.23 534.52
  Q 439.30 533.36 436.74 531.37
  A 0.44 0.44 0.0 0 0 436.08 531.51
  L 412.36 574.58
  A 0.31 0.30 29.7 0 0 412.47 574.98"
/>
</g>
<path fill="#ea4f22" d="
  M 755.33 172.22
  C 809.72 190.43 845.29 237.66 850.90 294.29
  Q 852.29 308.38 852.30 322.52
  Q 852.47 553.04 852.33 681.89
  Q 852.33 685.06 852.03 697.28
  C 851.91 701.91 851.31 704.86 850.85 709.99
  Q 850.12 718.00 847.47 730.01
  Q 843.21 749.29 834.16 766.75
  C 817.07 799.69 786.58 824.35 751.17 835.07
  Q 746.22 836.57 738.55 838.32
  Q 731.50 839.93 725.77 840.65
  Q 719.52 841.44 718.58 841.71
  A 5.06 4.65 -51.0 0 1 717.35 841.89
  C 710.56 841.95 704.34 842.97 697.66 842.97
  Q 419.58 842.95 356.00 842.98
  Q 335.94 842.99 318.58 842.88
  C 315.22 842.86 312.40 842.18 309.29 842.08
  Q 305.81 841.97 302.72 841.48
  Q 302.08 841.38 296.20 840.50
  C 257.65 834.70 223.52 814.50 200.47 783.16
  C 187.04 764.89 178.44 742.97 174.46 720.53
  Q 173.36 714.32 172.49 706.91
  Q 170.68 691.51 170.68 670.29
  Q 170.59 386.35 170.70 335.25
  Q 170.71 331.25 170.98 318.71
  Q 171.09 313.53 171.61 310.70
  Q 171.68 310.34 172.20 302.60
  Q 172.76 294.23 175.01 282.02
  C 180.10 254.37 193.27 228.42 212.11 208.83
  Q 243.91 175.77 290.99 166.50
  Q 293.56 165.99 302.68 164.62
  Q 307.60 163.88 311.85 163.91
  C 315.72 163.93 319.63 163.02 324.10 163.02
  Q 527.22 162.96 699.69 163.02
  C 704.18 163.03 708.32 163.77 712.81 163.90
  Q 716.28 164.00 721.93 164.74
  Q 725.60 165.22 730.99 166.10
  Q 742.84 168.04 755.33 172.22
  Z
  M 741.59 463.63
  C 732.42 364.40 650.32 292.42 555.62 276.38
  Q 526.95 271.53 498.26 273.07
  Q 428.91 276.79 373.11 315.04
  C 348.17 332.14 328.01 353.39 312.27 378.77
  Q 275.52 438.00 283.92 508.24
  C 288.57 547.17 306.10 582.81 332.30 611.69
  Q 373.90 657.55 432.16 678.33
  Q 471.45 692.35 511.50 692.59
  Q 545.96 692.81 584.50 681.43
  C 592.44 679.09 600.78 675.58 608.38 673.44
  Q 620.87 669.92 632.79 672.42
  Q 641.77 674.31 652.14 678.86
  Q 676.55 689.58 685.76 692.99
  C 693.24 695.77 715.03 703.99 715.12 690.41
  C 715.16 683.91 711.85 675.63 709.26 669.48
  Q 698.83 644.69 696.13 616.90
  Q 695.69 612.44 696.22 609.20
  A 4.99 4.92 70.1 0 1 697.33 606.78
  C 731.42 566.72 746.46 516.36 741.59 463.63
  Z"
/>
<path fill="#fff1e0" d="
  M 555.62 276.38
  C 650.32 292.42 732.42 364.40 741.59 463.63
  C 746.46 516.36 731.42 566.72 697.33 606.78
  A 4.99 4.92 70.1 0 0 696.22 609.20
  Q 695.69 612.44 696.13 616.90
  Q 698.83 644.69 709.26 669.48
  C 711.85 675.63 715.16 683.91 715.12 690.41
  C 715.03 703.99 693.24 695.77 685.76 692.99
  Q 676.55 689.58 652.14 678.86
  Q 641.77 674.31 632.79 672.42
  Q 620.87 669.92 608.38 673.44
  C 600.78 675.58 592.44 679.09 584.50 681.43
  Q 545.96 692.81 511.50 692.59
  Q 471.45 692.35 432.16 678.33
  Q 373.90 657.55 332.30 611.69
  C 306.10 582.81 288.57 547.17 283.92 508.24
  Q 275.52 438.00 312.27 378.77
  C 328.01 353.39 348.17 332.14 373.11 315.04
  Q 428.91 276.79 498.26 273.07
  Q 526.95 271.53 555.62 276.38
  Z
  M 412.47 574.98
  C 445.76 595.91 485.43 605.82 524.23 603.66
  C 550.57 602.20 580.96 593.78 598.83 573.31
  Q 618.90 550.32 613.05 520.09
  C 608.85 498.40 592.67 483.47 573.77 474.21
  Q 558.66 466.80 541.97 463.09
  Q 526.00 459.53 513.01 456.47
  Q 505.35 454.66 498.72 452.29
  C 491.55 449.74 484.37 446.05 481.89 438.64
  C 478.79 429.34 484.43 421.47 492.74 417.26
  Q 498.18 414.50 502.23 413.89
  Q 523.69 410.64 544.77 417.17
  Q 564.86 423.39 582.76 433.84
  A 0.33 0.32 -62.7 0 0 583.22 433.69
  L 603.12 389.88
  A 1.07 1.07 0.0 0 0 602.67 388.51
  Q 572.56 371.52 541.73 367.27
  Q 528.14 365.40 520.02 365.17
  Q 498.79 364.56 477.27 370.04
  C 449.44 377.14 420.58 395.27 415.87 426.33
  Q 413.58 441.41 417.35 455.47
  C 422.63 475.14 438.94 490.27 457.72 498.53
  Q 472.95 505.22 488.74 509.03
  Q 490.21 509.38 518.76 515.50
  C 529.68 517.84 549.36 522.83 549.36 536.81
  Q 549.36 542.21 546.24 546.17
  C 540.15 553.90 531.00 556.70 521.19 557.42
  C 508.07 558.39 496.20 556.17 483.02 552.42
  Q 460.16 545.93 441.23 534.52
  Q 439.30 533.36 436.74 531.37
  A 0.44 0.44 0.0 0 0 436.08 531.51
  L 412.36 574.58
  A 0.31 0.30 29.7 0 0 412.47 574.98
  Z"
/>
<path fill="#ea4f22" d="
  M 412.47 574.98
  A 0.31 0.30 29.7 0 1 412.36 574.58
  L 436.08 531.51
  A 0.44 0.44 0.0 0 1 436.74 531.37
  Q 439.30 533.36 441.23 534.52
  Q 460.16 545.93 483.02 552.42
  C 496.20 556.17 508.07 558.39 521.19 557.42
  C 531.00 556.70 540.15 553.90 546.24 546.17
  Q 549.36 542.21 549.36 536.81
  C 549.36 522.83 529.68 517.84 518.76 515.50
  Q 490.21 509.38 488.74 509.03
  Q 472.95 505.22 457.72 498.53
  C 438.94 490.27 422.63 475.14 417.35 455.47
  Q 413.58 441.41 415.87 426.33
  C 420.58 395.27 449.44 377.14 477.27 370.04
  Q 498.79 364.56 520.02 365.17
  Q 528.14 365.40 541.73 367.27
  Q 572.56 371.52 602.67 388.51
  A 1.07 1.07 0.0 0 1 603.12 389.88
  L 583.22 433.69
  A 0.33 0.32 -62.7 0 1 582.76 433.84
  Q 564.86 423.39 544.77 417.17
  Q 523.69 410.64 502.23 413.89
  Q 498.18 414.50 492.74 417.26
  C 484.43 421.47 478.79 429.34 481.89 438.64
  C 484.37 446.05 491.55 449.74 498.72 452.29
  Q 505.35 454.66 513.01 456.47
  Q 526.00 459.53 541.97 463.09
  Q 558.66 466.80 573.77 474.21
  C 592.67 483.47 608.85 498.40 613.05 520.09
  Q 618.90 550.32 598.83 573.31
  C 580.96 593.78 550.57 602.20 524.23 603.66
  C 485.43 605.82 445.76 595.91 412.47 574.98
  Z"
/>
</svg>
