<?xml version="1.0" encoding="UTF-8" standalone="no"?>
<!DOCTYPE svg PUBLIC "-//W3C//DTD SVG 1.1//EN" "http://www.w3.org/Graphics/SVG/1.1/DTD/svg11.dtd">
<svg xmlns="http://www.w3.org/2000/svg" version="1.1" viewBox="0.00 0.00 1536.00 1024.00" width="1536.00" height="1024.00">
<path fill="#dd4f28" d="
  M 830.34 639.23
  Q 829.91 639.67 829.20 639.94
  Q 819.16 643.87 808.19 646.81
  C 804.22 647.88 801.45 648.19 796.49 649.08
  Q 791.39 650.00 789.88 649.98
  C 786.78 649.94 784.39 650.83 781.02 650.90
  Q 760.66 651.32 753.01 650.69
  C 743.83 649.94 733.26 648.37 723.53 645.65
  Q 687.58 635.60 659.55 610.73
  C 636.01 589.84 618.27 562.91 610.51 532.78
  Q 606.04 515.45 605.17 499.38
  Q 604.93 494.84 605.07 484.10
  Q 605.11 480.77 605.64 477.45
  C 606.09 474.56 605.94 471.62 606.42 468.54
  Q 612.88 426.54 638.29 393.23
  Q 650.48 377.25 666.22 364.72
  C 685.47 349.39 708.91 337.77 733.03 332.56
  Q 743.25 330.35 757.56 329.20
  Q 760.76 328.94 772.01 329.05
  C 777.24 329.10 781.67 330.06 786.57 330.05
  A 3.71 3.67 52.9 0 1 787.61 330.20
  Q 789.12 330.65 792.74 331.07
  Q 803.63 332.32 817.69 337.14
  Q 849.61 348.07 874.99 370.10
  C 898.31 390.35 915.00 416.04 924.20 445.31
  C 930.14 464.21 931.72 484.26 930.01 504.25
  Q 928.26 524.72 920.99 544.48
  Q 908.81 577.53 883.94 602.65
  A 1.53 1.53 0.0 0 0 883.55 604.11
  L 897.72 660.11
  A 1.52 1.51 79.3 0 1 896.45 661.98
  Q 895.23 662.15 893.64 661.59
  Q 872.32 654.13 844.65 644.11
  Q 841.73 643.05 837.97 641.57
  Q 834.22 640.10 831.27 639.02
  A 0.89 0.89 0.0 0 0 830.34 639.23
  Z
  M 767.87 504.06
  C 781.29 504.07 792.26 496.00 796.53 483.51
  Q 797.89 479.54 797.93 471.80
  Q 798.07 437.62 797.87 421.04
  C 797.67 404.97 783.72 392.88 767.98 392.87
  C 752.24 392.85 738.26 404.91 738.03 420.98
  Q 737.80 437.56 737.88 471.74
  Q 737.90 479.48 739.25 483.46
  C 743.50 495.96 754.45 504.04 767.87 504.06
  Z
  M 760.32 554.92
  L 742.96 554.92
  A 2.60 2.59 29.6 0 0 741.64 555.28
  Q 736.69 558.14 738.95 563.75
  Q 740.15 566.72 743.99 566.73
  Q 771.83 566.78 792.35 566.67
  A 3.69 3.69 0.0 0 0 793.16 566.58
  Q 797.26 565.58 797.95 561.52
  C 798.60 557.73 795.48 554.94 792.01 554.92
  Q 778.89 554.86 774.86 554.98
  A 0.53 0.53 0.0 0 1 774.31 554.45
  L 774.31 528.88
  A 1.40 1.40 0.0 0 1 775.50 527.50
  Q 796.24 524.32 809.01 509.87
  C 816.12 501.83 820.24 491.46 820.63 480.74
  Q 820.75 477.50 820.58 468.73
  Q 820.49 464.35 815.78 463.38
  C 813.53 462.92 810.84 465.91 810.83 468.06
  C 810.82 473.05 811.14 477.13 810.32 481.95
  Q 807.08 500.97 791.34 510.96
  C 781.88 516.97 770.27 518.77 759.51 516.86
  Q 740.33 513.44 730.38 496.10
  C 725.67 487.89 724.94 478.10 725.06 468.42
  A 3.45 3.40 33.3 0 0 724.76 467.02
  C 723.38 463.97 719.54 462.21 716.68 464.67
  C 714.56 466.49 714.98 468.26 714.94 470.84
  Q 714.82 479.63 715.07 482.17
  Q 717.54 507.13 738.45 519.75
  Q 748.60 525.88 760.71 527.28
  A 0.29 0.28 -86.7 0 1 760.96 527.57
  L 760.96 554.28
  A 0.64 0.64 0.0 0 1 760.32 554.92
  Z"
/>
<rect fill="#dd4f28" x="-17.67" y="-42.96" transform="translate(767.50,448.97) rotate(0.2)" width="35.34" height="85.92" rx="16.94"/>
</svg>
